# xmcd CD database file
#
# Track frame offsets:
#	150
#	17767
#	34395
#	51597
#	70140
#	89025
#	108667
#	126490
#	150482
#
# Disc length: 2356 seconds
#
# Revision: 0
# Processed by: cddbd v1.5.1PL2 Copyright (c) Steve Scherf et al.
# Submitted via: CDex 1.51
#
DISCID=83093209
DTITLE=Elvin Jones - Dear John C.
DYEAR=1965
DGENRE=Jazz
TTITLE0=Dear John C.
TTITLE1=Smoke Rings
TTITLE2=Love Bird
TTITLE3=Feeling Good
TTITLE4=Anthropology
TTITLE5=This Love Of Mine
TTITLE6=Fantazm
TTITLE7=Ballade
TTITLE8=Everything Happens To Me
EXTD=YEAR: 1965
EXTT0=
EXTT1=
EXTT2=
EXTT3=
EXTT4=
EXTT5=
EXTT6=
EXTT7=
EXTT8=
PLAYORDER=
